/* XPM */
static char * image_name[]={
"32 32 93 2",
"  	c #000000",
". 	c #FF0000",
"X 	c #D11619",
"o 	c #DAAA00",
"O 	c #FF8C00",
"+ 	c #CDCD1D",
"@ 	c #DA322D",
"# 	c #D2691E",
"$ 	c #96522D",
"% 	c #FF6347",
"& 	c #F4A460",
"* 	c #CD853F",
"= 	c #F2DE0D",
"- 	c #FF7256",
"; 	c #A52A2A",
": 	c #0A0A0A",
"> 	c #B8860B",
", 	c #D7EB31",
"< 	c #FFFF00",
"1 	c #242424",
"2 	c #F3E64B",
"3 	c #6B8E23",
"4 	c #00FF00",
"5 	c #00AF14",
"6 	c #00562D",
"7 	c #0000FF",
"8 	c #030303",
"9 	c #238E23",
"0 	c #007A9F",
"q 	c #00A6A6",
"w 	c #007288",
"e 	c #00FFFF",
"r 	c #121212",
"t 	c #8B4513",
"y 	c #32BFC1",
"u 	c #1E90FF",
"i 	c #384B66",
"p 	c #00759C",
"a 	c #FF8700",
"s 	c #32814B",
"d 	c #00BFFF",
"f 	c #00739B",
"g 	c #00938F",
"h 	c #49D4F0",
"j 	c #007CA7",
"k 	c #080808",
"l 	c #347766",
"z 	c #7C98D3",
"x 	c #0079A8",
"c 	c #141414",
"v 	c #19CCDF",
"b 	c #00579E",
"n 	c #232375",
"m 	c #0D0D0D",
"M 	c #222298",
"N 	c #087EB4",
"B 	c #3232CC",
"V 	c #224798",
"C 	c #4169E1",
"Z 	c #0A78AD",
"A 	c #254798",
"S 	c #8E2323",
"D 	c #0876AE",
"F 	c #1D4B9A",
"G 	c #6B3939",
"H 	c #104A99",
"J 	c #2F2F64",
"K 	c #55562F",
"L 	c #05539E",
"P 	c #4E125D",
"I 	c #1F1F1F",
"U 	c #0062A8",
"Y 	c #27208B",
"T 	c #A22E61",
"R 	c #73234E",
"E 	c #0075B3",
"W 	c #561E85",
"Q 	c #B02291",
"! 	c #1C1C1C",
"~ 	c #2F4F4F",
"^ 	c #006DA0",
"/ 	c #00409C",
"( 	c #471489",
") 	c #6D2387",
"_ 	c #8C12A1",
"` 	c #F33E96",
"' 	c #592F71",
"] 	c #8F0052",
"[ 	c #1A1A1A",
"{ 	c #171717",
"} 	c #000001",
"| 	c #0F0F0F",
" .	c #050505",
"  . . X X X X X X X o o o o O +                                 ",
"X . X X X @ @ @ X X # o o o o $ o                               ",
". X X @ % % % % @ X X # & * o o + = = =                         ",
"X X @ % % - % % % @ X ; & & * o o = = = : >                     ",
"X X % % - - - % % @ @ ; # & & * o , = = o < 1                   ",
"X @ % % - - - % % @ @ X $ & & * o * 2 = + 3 4 5                 ",
"X @ % % - - % % % @ @ X $ & & * o > 2 , = 3 5 5 4 6             ",
"; X % % % % % % @ @ @ X $ & & * o > 2 2 = > 5 5 5 4 :           ",
"; X @ # % % % @ @ @ X X $ & * * $ > 2 , = > 5 5 5 6 6           ",
"; X @ @ @ @ @ @ @ @ X X $ * * o $ + 2 , = > 5 4 5 6 7 8         ",
"; X @ @ @ @ @ @ X X X X $ * O o > , , , = 3 5 4 5 9 0 q w       ",
"; X X X X X X X X X . X $ o O # > , , = o 9 4 4 5 9 q q e r     ",
"; X . X X X X X . . . X t O O $ o = = + 3 5 4 4 5 9 y u i p     ",
"; X . . . . . . . . . X t O a $ + = = > 5 4 4 4 5 s y d f       ",
"; X . . . . . . . . . X t O o > = = o 9 4 4 4 5 5 g h d j   k   ",
"; X . . . . . . . . . X t O # > = = 3 5 4 4 5 5 l z h d x : c   ",
"; X . . . . . . . . . X t O $ + = > 9 4 4 5 5 l y h v d b n   m ",
"; X . . . . . . . . . X t o $ = = 3 5 4 5 5 l y h v v u M M n M ",
"; X . . . . . . . . . X t # > = > 9 4 5 5 l y v v v d N M B n B ",
"; X . . . . . . . . . X t $ > + 3 5 5 5 l y v v v d q V C B M   ",
"; X . . . . . . . . . X t $ o > 5 5 5 l y v d d u Z A C C B M   ",
"; X . . . . X . . . . X S t > 9 5 5 l d d d u D F M C C B B n   ",
"; X . . X G G G X . . X S > 3 5 5 l d d d q H M B C C B B M J k ",
"; X . X G G G G G X . X S K 6 5 l u d u L M B B B B B B M n P I ",
"X X . X t t t t G X . X G 6 6 l u u U M B 7 7 B B B B M Y T R I ",
"X X . X $ $ $ $ t X . X G 6 l q E M M 7 7 7 7 7 M M M W Q Q R ! ",
"; X . X t $ $ t S X . ; ! ~ ^ / M 7 7 7 7 M M ( ) _ Q Q ` Q P r ",
"S ; . . X S S S X . X S I n M M 7 M M Y P ' Q Q Q ` ` Q Q ] P   ",
"G S X . . . . . . X ; [ n M M Y P P ] _ Q Q Q Q Q Q Q Q ] P r   ",
"G G S ; X . . . X S G [ n P R ] ] _ _ _ _ Q Q Q Q Q _ R P {   } ",
"  S m G S S S S G | { P P P P P P P P P P P P P P P P G r   }   ",
"        8 : :  .  } m m m m : : : : : : : m : | ! { k           "
};
